<svg width="134" height="48" viewBox="0 0 134 48" fill="none" xmlns="http://www.w3.org/2000/svg">
<path fill-rule="evenodd" clip-rule="evenodd" d="M133.5 24C133.5 27.1101 131.742 30.14 128.412 32.9603C125.084 35.7788 120.238 38.3395 114.208 40.4999C102.15 44.819 85.4596 47.5 67 47.5C48.5404 47.5 31.8501 44.819 19.7925 40.4999C13.7615 38.3395 8.91629 35.7788 5.58833 32.9603C2.25817 30.14 0.5 27.1101 0.5 24C0.5 20.8899 2.25817 17.86 5.58833 15.0397C8.91629 12.2212 13.7615 9.66049 19.7925 7.50015C31.8501 3.18101 48.5404 0.5 67 0.5C85.4596 0.5 102.15 3.18101 114.208 7.50015C120.238 9.66049 125.084 12.2212 128.412 15.0397C131.742 17.86 133.5 20.8899 133.5 24ZM134 24C134 37.2548 104.003 48 67 48C29.9969 48 0 37.2548 0 24C0 10.7452 29.9969 0 67 0C104.003 0 134 10.7452 134 24ZM35.6653 16.34V23.82C36.012 22.9133 36.492 22.2867 37.1053 21.94C37.732 21.5933 38.3853 21.42 39.0653 21.42C39.572 21.42 39.992 21.4867 40.3253 21.62C40.672 21.7533 40.9586 21.94 41.1853 22.18C41.4386 22.4467 41.6186 22.78 41.7253 23.18C41.832 23.58 41.8853 24.12 41.8853 24.8V30.14C41.8853 30.7 41.9986 31.08 42.2253 31.28C42.4653 31.48 42.8586 31.58 43.4053 31.58V32C43.1786 31.9867 42.832 31.9733 42.3653 31.96C41.8986 31.9333 41.4453 31.92 41.0053 31.92C40.5653 31.92 40.132 31.9333 39.7053 31.96C39.292 31.9733 38.9786 31.9867 38.7653 32V31.58C39.2453 31.58 39.5853 31.48 39.7853 31.28C39.9853 31.08 40.0853 30.7 40.0853 30.14V24.36C40.0853 23.9467 40.052 23.5667 39.9853 23.22C39.9186 22.8733 39.7653 22.5933 39.5253 22.38C39.2986 22.1667 38.9453 22.06 38.4653 22.06C37.9186 22.06 37.432 22.2133 37.0053 22.52C36.592 22.8267 36.2653 23.2533 36.0253 23.8C35.7853 24.3467 35.6653 24.9733 35.6653 25.68V30.14C35.6653 30.7 35.7653 31.08 35.9653 31.28C36.1653 31.48 36.5053 31.58 36.9853 31.58V32C36.772 31.9867 36.452 31.9733 36.0253 31.96C35.612 31.9333 35.1853 31.92 34.7453 31.92C34.3053 31.92 33.852 31.9333 33.3853 31.96C32.9186 31.9733 32.572 31.9867 32.3453 32V31.58C32.892 31.58 33.2786 31.48 33.5053 31.28C33.7453 31.08 33.8653 30.7 33.8653 30.14V18.74C33.8653 18.14 33.7586 17.7 33.5453 17.42C33.332 17.1267 32.932 16.98 32.3453 16.98V16.56C32.772 16.6 33.1853 16.62 33.5853 16.62C33.972 16.62 34.3386 16.6 34.6853 16.56C35.0453 16.5067 35.372 16.4333 35.6653 16.34ZM27.16 21.42C27.6933 21.42 28.1467 21.5067 28.52 21.68C28.8933 21.8533 29.1667 22.0133 29.34 22.16C29.78 22.52 30.0467 22.28 30.14 21.44H30.6C30.5733 21.8133 30.5533 22.26 30.54 22.78C30.5267 23.2867 30.52 23.9733 30.52 24.84H30.06C29.98 24.3467 29.84 23.8667 29.64 23.4C29.4533 22.9333 29.1733 22.5533 28.8 22.26C28.4267 21.9533 27.94 21.8 27.34 21.8C26.8733 21.8 26.48 21.9333 26.16 22.2C25.8533 22.4533 25.7 22.8333 25.7 23.34C25.7 23.74 25.82 24.0867 26.06 24.38C26.3 24.66 26.6133 24.9267 27 25.18C27.3867 25.42 27.8067 25.6867 28.26 25.98C28.7667 26.3 29.2267 26.6267 29.64 26.96C30.0533 27.2933 30.38 27.66 30.62 28.06C30.8733 28.46 31 28.9333 31 29.48C31 30.0933 30.84 30.6067 30.52 31.02C30.2 31.4333 29.78 31.7467 29.26 31.96C28.7533 32.1733 28.1933 32.28 27.58 32.28C27.2867 32.28 27.0067 32.2533 26.74 32.2C26.4867 32.16 26.24 32.0933 26 32C25.8667 31.9333 25.7267 31.8533 25.58 31.76C25.4467 31.6667 25.3133 31.5667 25.18 31.46C25.0467 31.3533 24.9267 31.36 24.82 31.48C24.7133 31.5867 24.6333 31.8067 24.58 32.14H24.12C24.1467 31.7133 24.1667 31.1933 24.18 30.58C24.1933 29.9667 24.2 29.1533 24.2 28.14H24.66C24.7533 28.8867 24.8867 29.54 25.06 30.1C25.2333 30.66 25.5067 31.1 25.88 31.42C26.2533 31.7267 26.7733 31.88 27.44 31.88C27.7067 31.88 27.9733 31.82 28.24 31.7C28.52 31.58 28.7533 31.38 28.94 31.1C29.1267 30.82 29.22 30.4467 29.22 29.98C29.22 29.3933 29.0067 28.9133 28.58 28.54C28.1533 28.1667 27.6133 27.7733 26.96 27.36C26.48 27.0533 26.0267 26.7467 25.6 26.44C25.1867 26.1333 24.8467 25.7867 24.58 25.4C24.3267 25.0133 24.2 24.5467 24.2 24C24.2 23.4 24.3333 22.9133 24.6 22.54C24.88 22.1533 25.2467 21.8733 25.7 21.7C26.1533 21.5133 26.64 21.42 27.16 21.42ZM51.4831 21.98C50.8031 21.6067 50.0365 21.42 49.1831 21.42C48.3431 21.42 47.5765 21.6067 46.8831 21.98C46.2031 22.3533 45.6565 22.94 45.2431 23.74C44.8431 24.54 44.6431 25.58 44.6431 26.86C44.6431 28.14 44.8431 29.18 45.2431 29.98C45.6565 30.7667 46.2031 31.3467 46.8831 31.72C47.5765 32.0933 48.3431 32.28 49.1831 32.28C50.0365 32.28 50.8031 32.0933 51.4831 31.72C52.1631 31.3467 52.7031 30.7667 53.1031 29.98C53.5165 29.18 53.7231 28.14 53.7231 26.86C53.7231 25.58 53.5165 24.54 53.1031 23.74C52.7031 22.94 52.1631 22.3533 51.4831 21.98ZM47.3031 23C47.7965 22.2133 48.4231 21.82 49.1831 21.82C49.9431 21.82 50.5631 22.2133 51.0431 23C51.5365 23.7867 51.7831 25.0733 51.7831 26.86C51.7831 28.6467 51.5365 29.9333 51.0431 30.72C50.5631 31.4933 49.9431 31.88 49.1831 31.88C48.4231 31.88 47.7965 31.4933 47.3031 30.72C46.8231 29.9333 46.5831 28.6467 46.5831 26.86C46.5831 25.0733 46.8231 23.7867 47.3031 23ZM58.4202 21.48V23.5576C58.6236 23.0884 58.8969 22.6893 59.2402 22.36C59.9068 21.7333 60.7002 21.42 61.6202 21.42C62.3268 21.42 62.9602 21.6133 63.5202 22C64.0802 22.3733 64.5202 22.9267 64.8402 23.66C65.1735 24.3933 65.3402 25.3 65.3402 26.38C65.3402 27.1 65.2535 27.8133 65.0802 28.52C64.9068 29.2133 64.6335 29.8467 64.2602 30.42C63.9002 30.98 63.4268 31.4333 62.8402 31.78C62.2668 32.1133 61.5735 32.28 60.7602 32.28C60.1335 32.28 59.5868 32.1333 59.1202 31.84C58.8244 31.6486 58.5911 31.4317 58.4202 31.1893V33.76C58.4202 34.3333 58.5868 34.7133 58.9202 34.9C59.2668 35.1 59.7402 35.2 60.3402 35.2V35.62C60.0468 35.6067 59.6402 35.5867 59.1202 35.56C58.6002 35.5467 58.0468 35.54 57.4602 35.54C57.0468 35.54 56.6335 35.5467 56.2202 35.56C55.8202 35.5867 55.5135 35.6067 55.3002 35.62V35.2C55.7802 35.2 56.1202 35.1133 56.3202 34.94C56.5202 34.7667 56.6202 34.44 56.6202 33.96V23.88C56.6202 23.28 56.5135 22.84 56.3002 22.56C56.0868 22.2667 55.6868 22.12 55.1002 22.12V21.7C55.5268 21.74 55.9402 21.76 56.3402 21.76C56.7268 21.76 57.0935 21.74 57.4402 21.7C57.8002 21.6467 58.1268 21.5733 58.4202 21.48ZM58.4202 30.5392V24.5372C58.6022 23.8103 58.8956 23.2446 59.3002 22.84C59.8335 22.2933 60.4268 22.02 61.0802 22.02C61.5868 22.02 62.0135 22.1867 62.3602 22.52C62.7068 22.8533 62.9668 23.36 63.1402 24.04C63.3135 24.72 63.4002 25.5933 63.4002 26.66C63.4002 27.6067 63.3135 28.4733 63.1402 29.26C62.9802 30.0333 62.6935 30.6533 62.2802 31.12C61.8668 31.5867 61.2868 31.82 60.5402 31.82C60.0068 31.82 59.5602 31.6933 59.2002 31.44C58.8657 31.1956 58.6057 30.8953 58.4202 30.5392ZM79.8217 21.62C79.4884 21.4867 79.0684 21.42 78.5617 21.42C77.8817 21.42 77.2284 21.6 76.6017 21.96C75.9884 22.3067 75.5084 22.9333 75.1617 23.84V21.48C74.8684 21.5733 74.5417 21.6467 74.1817 21.7C73.8351 21.74 73.4684 21.76 73.0817 21.76C72.6817 21.76 72.2684 21.74 71.8417 21.7V22.12C72.4284 22.12 72.8284 22.2667 73.0417 22.56C73.2551 22.84 73.3617 23.28 73.3617 23.88V30.14C73.3617 30.7 73.2417 31.08 73.0017 31.28C72.7751 31.48 72.3884 31.58 71.8417 31.58V32C72.0684 31.9867 72.4151 31.9733 72.8817 31.96C73.3484 31.9333 73.8017 31.92 74.2417 31.92C74.6817 31.92 75.1084 31.9333 75.5217 31.96C75.9484 31.9733 76.2684 31.9867 76.4817 32V31.58C76.0017 31.58 75.6617 31.48 75.4617 31.28C75.2617 31.08 75.1617 30.7 75.1617 30.14V25.7C75.1617 25.02 75.2751 24.4067 75.5017 23.86C75.7417 23.3 76.0684 22.86 76.4817 22.54C76.9084 22.22 77.4017 22.06 77.9617 22.06C78.4417 22.06 78.7951 22.1667 79.0217 22.38C79.2617 22.5933 79.4151 22.8733 79.4817 23.22C79.5484 23.5667 79.5817 23.9467 79.5817 24.36V30.14C79.5817 30.7 79.4817 31.08 79.2817 31.28C79.0817 31.48 78.7417 31.58 78.2617 31.58V32C78.4751 31.9867 78.7884 31.9733 79.2017 31.96C79.6284 31.9333 80.0617 31.92 80.5017 31.92C80.9417 31.92 81.3951 31.9333 81.8617 31.96C82.3284 31.9733 82.6751 31.9867 82.9017 32V31.58C82.3551 31.58 81.9617 31.48 81.7217 31.28C81.4951 31.08 81.3817 30.7 81.3817 30.14V24.8C81.3817 24.12 81.3284 23.58 81.2217 23.18C81.1151 22.78 80.9351 22.4467 80.6817 22.18C80.4551 21.94 80.1684 21.7533 79.8217 21.62ZM88.6753 21.42C89.5286 21.42 90.2953 21.6067 90.9753 21.98C91.6553 22.3533 92.1953 22.94 92.5953 23.74C93.0086 24.54 93.2153 25.58 93.2153 26.86C93.2153 28.14 93.0086 29.18 92.5953 29.98C92.1953 30.7667 91.6553 31.3467 90.9753 31.72C90.2953 32.0933 89.5286 32.28 88.6753 32.28C87.8353 32.28 87.0686 32.0933 86.3753 31.72C85.6953 31.3467 85.1487 30.7667 84.7353 29.98C84.3353 29.18 84.1353 28.14 84.1353 26.86C84.1353 25.58 84.3353 24.54 84.7353 23.74C85.1487 22.94 85.6953 22.3533 86.3753 21.98C87.0686 21.6067 87.8353 21.42 88.6753 21.42ZM88.6753 21.82C87.9153 21.82 87.2886 22.2133 86.7953 23C86.3153 23.7867 86.0753 25.0733 86.0753 26.86C86.0753 28.6467 86.3153 29.9333 86.7953 30.72C87.2886 31.4933 87.9153 31.88 88.6753 31.88C89.4353 31.88 90.0553 31.4933 90.5353 30.72C91.0286 29.9333 91.2753 28.6467 91.2753 26.86C91.2753 25.0733 91.0286 23.7867 90.5353 23C90.0553 22.2133 89.4353 21.82 88.6753 21.82ZM98.3756 22.12V21.7C97.9756 21.7267 97.5423 21.7533 97.0756 21.78C96.6223 21.8067 96.189 21.82 95.7756 21.82C95.4423 21.82 95.129 21.8133 94.8356 21.8C94.5556 21.7733 94.2823 21.74 94.0156 21.7V22.12C94.1623 22.12 94.3356 22.1733 94.5356 22.28C94.749 22.3867 94.9623 22.7067 95.1756 23.24L98.4556 32.1H98.6356H98.7956L101.649 24.055L104.816 32.1H104.996H105.156L108.056 23.5C108.229 22.98 108.422 22.6267 108.636 22.44C108.862 22.24 109.102 22.1267 109.356 22.1V21.7C109.142 21.7133 108.909 21.7267 108.656 21.74C108.416 21.7533 108.142 21.76 107.836 21.76H107.276C107.116 21.7467 106.949 21.74 106.776 21.74C106.602 21.7267 106.396 21.7133 106.156 21.7V22.1C106.636 22.1267 106.989 22.2067 107.216 22.34C107.456 22.46 107.589 22.6533 107.616 22.92C107.656 23.1733 107.602 23.5267 107.456 23.98L105.571 29.7094L102.516 21.62H102.276H102.056L99.1834 29.5529L97.1756 23.8C96.9756 23.2267 96.9156 22.8267 96.9956 22.6C97.0756 22.3733 97.2423 22.24 97.4956 22.2C97.749 22.1467 98.0423 22.12 98.3756 22.12Z" fill="#222326"/>
</svg>
