<svg width="26" height="26" viewBox="0 0 26 26" fill="none" xmlns="http://www.w3.org/2000/svg">
<g clip-path="url(#clip0_564_8267)">
<path d="M12.9999 0.0263672C5.82024 0.0263672 0 5.84676 0 13.0263C0 18.5338 3.42646 23.242 8.26246 25.1361C8.14872 24.1075 8.04609 22.5257 8.30761 21.4028C8.54374 20.3883 9.83196 14.941 9.83196 14.941C9.83196 14.941 9.44303 14.1623 9.44303 13.0109C9.44303 11.2033 10.4907 9.85376 11.7954 9.85376C12.9044 9.85376 13.4402 10.6865 13.4402 11.685C13.4402 12.8004 12.7301 14.4679 12.3635 16.0133C12.0573 17.3073 13.0124 18.3625 14.2886 18.3625C16.5993 18.3625 18.3753 15.9262 18.3753 12.4095C18.3753 9.29694 16.1386 7.12066 12.9452 7.12066C9.2462 7.12066 7.075 9.89504 7.075 12.7622C7.075 13.8796 7.50537 15.0776 8.04248 15.7289C8.14861 15.8576 8.16425 15.9705 8.13267 16.1018C8.0339 16.5124 7.81468 17.3954 7.77156 17.5761C7.71484 17.814 7.58311 17.8645 7.33682 17.7499C5.71314 16.9941 4.69808 14.6204 4.69808 12.7138C4.69808 8.61292 7.67752 4.84698 13.2876 4.84698C17.7973 4.84698 21.302 8.06037 21.302 12.355C21.302 16.8354 18.4771 20.441 14.5561 20.441C13.2388 20.441 12.0004 19.7567 11.5766 18.9483C11.5766 18.9483 10.9246 21.4304 10.7666 22.0387C10.473 23.1679 9.68079 24.5833 9.15083 25.4466C10.3673 25.8232 11.6599 26.0263 12.9999 26.0263C20.1798 26.0263 26 20.2062 26 13.0263C26 5.84676 20.1798 0.0263672 12.9999 0.0263672Z" fill="#D0CBC9"/>
</g>
<defs>
<clipPath id="clip0_564_8267">
<rect width="26" height="26" fill="white"/>
</clipPath>
</defs>
</svg>
