<svg width="16" height="16" viewBox="0 0 16 16" fill="none" xmlns="http://www.w3.org/2000/svg">
<g clip-path="url(#clip0_590_4586)">
<path d="M11.3334 2.00006C11.5085 1.82497 11.7163 1.68607 11.9451 1.59131C12.1739 1.49655 12.4191 1.44778 12.6667 1.44778C12.9143 1.44778 13.1595 1.49655 13.3883 1.59131C13.6171 1.68607 13.8249 1.82497 14 2.00006C14.1751 2.17516 14.314 2.38303 14.4088 2.6118C14.5036 2.84057 14.5523 3.08577 14.5523 3.33339C14.5523 3.58102 14.5036 3.82622 14.4088 4.05499C14.314 4.28376 14.1751 4.49163 14 4.66673L5.00004 13.6667L1.33337 14.6667L2.33337 11.0001L11.3334 2.00006Z" stroke="#5F6AFF" stroke-width="1.5" stroke-linecap="round" stroke-linejoin="round"/>
</g>
<defs>
<clipPath id="clip0_590_4586">
<rect width="16" height="16" fill="white"/>
</clipPath>
</defs>
</svg>
