<svg width="20" height="16" viewBox="0 0 20 16" fill="none" xmlns="http://www.w3.org/2000/svg">
<path d="M0 1C0 0.447715 0.447715 0 1 0H19C19.5523 0 20 0.447715 20 1C20 1.55228 19.5523 2 19 2H1C0.447716 2 0 1.55228 0 1Z" fill="black"/>
<path d="M0 15C0 14.4477 0.447715 14 1 14H19C19.5523 14 20 14.4477 20 15C20 15.5523 19.5523 16 19 16H1C0.447716 16 0 15.5523 0 15Z" fill="black"/>
<path d="M1 7C0.447715 7 0 7.44772 0 8C0 8.55229 0.447716 9 1 9H19C19.5523 9 20 8.55229 20 8C20 7.44772 19.5523 7 19 7H1Z" fill="black"/>
</svg>
